<svg xmlns="http://www.w3.org/2000/svg" version="1.1" xmlns:xlink="http://www.w3.org/1999/xlink" xmlns:svgjs="http://svgjs.dev/svgjs" width="2000" height="1500" viewBox="0 0 2000 1500"><rect width="2000" height="1500" fill="#0e143d"></rect><g transform="matrix(0.75,0,0,0.75,249.090909090909,580.5689698996224)"><svg viewBox="0 0 396 90" data-background-color="#0e143d" preserveAspectRatio="xMidYMid meet" height="454" width="2000" xmlns="http://www.w3.org/2000/svg" xmlns:xlink="http://www.w3.org/1999/xlink"><g id="tight-bounds" transform="matrix(1,0,0,1,0.2400000000000091,-0.21646745456109784)"><svg viewBox="0 0 395.52 90.43293281425544" height="90.43293281425544" width="395.52"><g><svg viewBox="0 0 601.9654557958551 137.6352690647482" height="90.43293281425544" width="395.52"><g><rect width="8.981252245916547" height="119.50964028776977" x="173.9530720161256" y="9.062814388489215" fill="#fbfbfb" opacity="1" stroke-width="0" stroke="transparent" fill-opacity="1" class="rect-o-0" data-fill-palette-color="primary" rx="1%" id="o-0" data-palette-color="#fbfbfb"></rect></g><g transform="matrix(1,0,0,1,206.44545579585508,19.02195107913669)"><svg viewBox="0 0 395.52 99.59136690647482" height="99.59136690647482" width="395.52"><g id="textblocktransform"><svg viewBox="0 0 395.52 99.59136690647482" height="99.59136690647482" width="395.52" id="textblock"><g><svg viewBox="0 0 395.52 99.59136690647482" height="99.59136690647482" width="395.52"><g transform="matrix(1,0,0,1,0,0)"><svg width="395.52" viewBox="3.9000000953674316 -35 138.99000549316406 35" height="99.59136690647482" data-palette-color="#fbfbfb"><path d="M17.55 0L5.1 0Q4.6 0 4.25-0.35 3.9-0.7 3.9-1.2L3.9-1.2 3.9-33.75Q3.9-34.3 4.25-34.65 4.6-35 5.1-35L5.1-35 17.3-35Q22.35-35 25.63-33.45 28.9-31.9 30.58-28.85 32.25-25.8 32.3-21.4L32.3-21.4Q32.4-19.2 32.4-17.5 32.4-15.8 32.3-13.65L32.3-13.65Q32.2-9 30.6-5.98 29-2.95 25.78-1.48 22.55 0 17.55 0L17.55 0ZM10.85-29.25L10.85-5.75 17.3-5.75Q20.1-5.75 21.85-6.55 23.6-7.35 24.43-9.13 25.25-10.9 25.3-13.8L25.3-13.8Q25.35-15.3 25.38-16.43 25.4-17.55 25.38-18.68 25.35-19.8 25.3-21.25L25.3-21.25Q25.2-25.35 23.25-27.3 21.3-29.25 17.05-29.25L17.05-29.25 10.85-29.25ZM44.8 0L40.25 0Q39.75 0 39.4-0.35 39.05-0.7 39.05-1.2L39.05-1.2 39.05-33.75Q39.05-34.3 39.4-34.65 39.75-35 40.25-35L40.25-35 53.2-35Q59.25-35 62.75-32.2 66.25-29.4 66.25-24.05L66.25-24.05Q66.25-20.35 64.42-17.9 62.6-15.45 59.55-14.35L59.55-14.35 66.85-1.6Q67-1.3 67-1.05L67-1.05Q67-0.6 66.67-0.3 66.35 0 65.95 0L65.95 0 61.4 0Q60.55 0 60.1-0.45 59.65-0.9 59.4-1.35L59.4-1.35 52.95-13.2 46-13.2 46-1.2Q46-0.7 45.67-0.35 45.35 0 44.8 0L44.8 0ZM46-29.45L46-18.85 53.05-18.85Q56.1-18.85 57.6-20.23 59.1-21.6 59.1-24.1L59.1-24.1Q59.1-26.6 57.62-28.03 56.15-29.45 53.05-29.45L53.05-29.45 46-29.45ZM78.59 0L73.89 0Q73.39 0 73.05-0.35 72.7-0.7 72.7-1.2L72.7-1.2 72.7-33.8Q72.7-34.3 73.05-34.65 73.39-35 73.89-35L73.89-35 78.59-35Q79.15-35 79.47-34.65 79.8-34.3 79.8-33.8L79.8-33.8 79.8-1.2Q79.8-0.7 79.47-0.35 79.15 0 78.59 0L78.59 0ZM93.24 0L88.84 0Q88.34 0 87.99-0.35 87.64-0.7 87.64-1.2L87.64-1.2 87.64-33.75Q87.64-34.3 87.99-34.65 88.34-35 88.84-35L88.84-35 110.54-35Q111.09-35 111.44-34.65 111.79-34.3 111.79-33.75L111.79-33.75 111.79-30.25Q111.79-29.7 111.44-29.38 111.09-29.05 110.54-29.05L110.54-29.05 94.49-29.05 94.49-19.55 109.54-19.55Q110.09-19.55 110.44-19.2 110.79-18.85 110.79-18.3L110.79-18.3 110.79-14.8Q110.79-14.3 110.44-13.95 110.09-13.6 109.54-13.6L109.54-13.6 94.49-13.6 94.49-1.2Q94.49-0.7 94.14-0.35 93.79 0 93.24 0L93.24 0ZM131.19 0L126.59 0Q126.09 0 125.74-0.35 125.39-0.7 125.39-1.2L125.39-1.2 125.39-28.85 116.14-28.85Q115.64-28.85 115.29-29.2 114.94-29.55 114.94-30.05L114.94-30.05 114.94-33.75Q114.94-34.3 115.29-34.65 115.64-35 116.14-35L116.14-35 141.64-35Q142.19-35 142.54-34.65 142.89-34.3 142.89-33.75L142.89-33.75 142.89-30.05Q142.89-29.55 142.54-29.2 142.19-28.85 141.64-28.85L141.64-28.85 132.44-28.85 132.44-1.2Q132.44-0.7 132.09-0.35 131.74 0 131.19 0L131.19 0Z" opacity="1" transform="matrix(1,0,0,1,0,0)" fill="#fbfbfb" class="wordmark-text-0" data-fill-palette-color="primary" id="text-0"></path></svg></g></svg></g></svg></g></svg></g><g><svg viewBox="0 0 150.44194048231265 137.6352690647482" height="137.6352690647482" width="150.44194048231265"><g><svg xmlns="http://www.w3.org/2000/svg" xmlns:xlink="http://www.w3.org/1999/xlink" version="1.1" x="0" y="0" viewBox="5 8.831000328063965 89.99937438964844 82.33799743652344" enable-background="new 0 0 100 100" xml:space="preserve" height="137.6352690647482" width="150.44194048231265" class="icon-icon-0" data-fill-palette-color="accent" id="icon-0"><path d="M20.263 33.118h23.621c1.956-1.616 3.257-4.441 3.257-7.659s-1.301-6.042-3.257-7.659H20.263c1.958 1.617 3.258 4.44 3.258 7.659C23.521 28.678 22.221 31.502 20.263 33.118zM78.434 61.512c1.774-2.16 2.953-5.938 2.953-10.244 0-4.304-1.179-8.082-2.953-10.243H51.771c1.772 2.161 2.951 5.939 2.951 10.243 0 4.307-1.179 8.084-2.951 10.244H78.434zM52.966 35.998h23.619c1.957-1.616 3.258-4.44 3.258-7.659 0-3.219-1.301-6.043-3.258-7.659H52.966c1.957 1.615 3.257 4.44 3.257 7.659C56.223 31.558 54.923 34.382 52.966 35.998zM45.249 61.512c2.145-2.464 3.569-6.772 3.569-11.683s-1.425-9.219-3.569-11.684H19.37c2.145 2.465 3.57 6.774 3.57 11.684s-1.426 9.219-3.57 11.683H45.249zM30.681 10.372l-8.982 2.593 8.982 2.593V10.372zM63.174 13.22l-8.988 2.595 8.988 2.595V13.22zM66.582 40.278v-3.534H63.92v3.534H66.582zM66.582 13.009c0-0.733-0.598-1.33-1.344-1.33-0.733 0-1.318 0.597-1.318 1.33v6.925h2.662V13.009zM66.582 66.583v-4.324H63.92v4.324H66.582zM34.099 37.398v-3.535h-2.673v3.535H34.099zM34.099 66.583v-4.324h-2.673v4.324H34.099zM34.099 10.149c0-0.733-0.609-1.318-1.33-1.318-0.733 0-1.343 0.585-1.343 1.318v6.905h2.673V10.149zM13.854 77.628c-1.811 0.201-3.221 1.713-3.221 3.556v8.221h8.382l-5.161-9.7V77.628zM19.86 89.402l0.933 1.767h43.984c3.222 0 6.145-1.308 8.246-3.42 1.25-1.243 2.205-2.774 2.783-4.481h-59.21L19.86 89.402zM94.984 64.705c-0.049-0.262-0.322-0.424-0.584-0.359L81.604 67.33H55.938l-2.449 2.798H37.744l-2.451-2.798H21.117l-7.637-5.821H5v5.248h3.121v6.169L14.6 75.4v4.115l1.376 2.588h60.159c0.188-0.834 0.297-1.695 0.297-2.588 0-3.27 3.719-6.478 7.885-10.756l10.357-3.482C94.911 65.202 95.047 64.954 94.984 64.705zM21.621 75.309c-0.75 0-1.358-0.606-1.358-1.354 0-0.75 0.607-1.356 1.358-1.356 0.748 0 1.355 0.606 1.355 1.356C22.976 74.701 22.369 75.309 21.621 75.309zM27.255 75.309c-0.75 0-1.356-0.606-1.356-1.354 0-0.75 0.607-1.356 1.356-1.356s1.356 0.606 1.356 1.356C28.611 74.701 28.004 75.309 27.255 75.309zM32.889 75.309c-0.748 0-1.355-0.606-1.355-1.354 0-0.75 0.607-1.356 1.355-1.356 0.75 0 1.357 0.606 1.357 1.356C34.246 74.701 33.639 75.309 32.889 75.309zM57.896 75.309c-0.75 0-1.356-0.606-1.356-1.354 0-0.75 0.606-1.356 1.356-1.356 0.748 0 1.355 0.606 1.355 1.356C59.253 74.701 58.645 75.309 57.896 75.309zM63.529 75.309c-0.75 0-1.355-0.606-1.355-1.354 0-0.75 0.605-1.356 1.355-1.356s1.357 0.606 1.357 1.356C64.887 74.701 64.279 75.309 63.529 75.309zM69.165 75.309c-0.749 0-1.356-0.606-1.356-1.354 0-0.75 0.607-1.356 1.356-1.356s1.356 0.606 1.356 1.356C70.521 74.701 69.914 75.309 69.165 75.309z" fill="#ffffff" data-fill-palette-color="accent"></path></svg></g></svg></g></svg></g><defs></defs></svg><rect width="395.52" height="90.43293281425544" fill="none" stroke="none" visibility="hidden"></rect></g></svg></g></svg>