<?xml version="1.0" standalone="no"?><svg xmlns="http://www.w3.org/2000/svg" viewBox="0 0 1440 320"><path fill="#0f1433" fill-opacity="1" d="M0,192L24,192C48,192,96,192,144,192C192,192,240,192,288,181.3C336,171,384,149,432,133.3C480,117,528,107,576,133.3C624,160,672,224,720,250.7C768,277,816,267,864,240C912,213,960,171,1008,160C1056,149,1104,171,1152,202.7C1200,235,1248,277,1296,272C1344,267,1392,213,1416,186.7L1440,160L1440,320L1416,320C1392,320,1344,320,1296,320C1248,320,1200,320,1152,320C1104,320,1056,320,1008,320C960,320,912,320,864,320C816,320,768,320,720,320C672,320,624,320,576,320C528,320,480,320,432,320C384,320,336,320,288,320C240,320,192,320,144,320C96,320,48,320,24,320L0,320Z"></path></svg>